# xmcd CD database file
#
# Track frame offsets:
#	150
#	12124
#	18358
#	26193
#	37870
#	50533
#	70371
#	80423
#	91425
#	100337
#	106398
#	117764
#	127210
#	140780
#	147672
#	157265
#	165893
#	176661
#	185249
#	195591
#
# Disc length: 2835 seconds
#
# Revision: 0
# Processed by: cddbd v1.5.2PL0 Copyright (c) Steve Scherf et al.
# Submitted via: CDex 1.70beta2
#
DISCID=210b1114
DTITLE=Artiste Variés - 20 Grands Classicques Du Floklore Québecois
DYEAR=1900
DGENRE=Country
TTITLE0=Reel de Rivière Du Loup
TTITLE1=Le Petit Cordonnier
TTITLE2=Reel à Jean-Guy
TTITLE3=Nicolas
TTITLE4=Reel De La Patate Brulée
TTITLE5=Le Bon Vin M'Endors
TTITLE6=Reel Du Linge À Laver
TTITLE7=Bonhomme, Bonhomme
TTITLE8=Big John McNeil Reel
TTITLE9=J'Ai Tant Dansé
TTITLE10=Reel De Bonhomme Et De La Bonne Femme
TTITLE11=Prendre Un P'tit Coup
TTITLE12=Partons La Mer Est Belle
TTITLE13=Le Crapaud
TTITLE14=La Ronfleuse À Gobeil
TTITLE15=La Vie D'Un Homme
TTITLE16=Reel À Robin
TTITLE17=Au Bar De Mon Oncle Henri
TTITLE18=Reel Des Montagnards
TTITLE19=Le Curé De Sr-Denis
EXTD=
EXTT0=
EXTT1=
EXTT2=
EXTT3=
EXTT4=
EXTT5=
EXTT6=
EXTT7=
EXTT8=
EXTT9=
EXTT10=
EXTT11=
EXTT12=
EXTT13=
EXTT14=
EXTT15=
EXTT16=
EXTT17=
EXTT18=
EXTT19=
PLAYORDER=
